<?xml version="1.0" standalone="no"?>
<svg xmlns="http://www.w3.org/2000/svg" viewBox="0 0 100.907 116.517" width="100.907" height="116.517"><polygon fill="#152452" points="100.907,29.12925 100.907,87.38775 50.4535,116.517 0,87.38775 0,29.12925 50.4535,0"></polygon><g fill="white" color="white" transform="translate(28.4535 22.5) scale(0.44)"><svg width="100.0" height="100.0" x="0.0" y="0.0" viewBox="0 0 100 100"><title></title><path d="M71.87673,50.50235a33.58957,33.58957,0,0,0-6.176-8.71985H40.75491a33.58652,33.58652,0,0,0-6.176,8.71985Z"></path><path d="M34.07388,51.70238c-2.95411,6.2276-5.47767,13.25506-5.47767,18.97485,0,13.60364,11.02784,20.63159,24.6316,20.63159,13.60351,0,24.63159-7.028,24.63159-20.63159,0-5.71979-2.52356-12.74725-5.47766-18.97485Z"></path><circle cx="36.10817" cy="23.34255" r="2.15424"></circle><path d="M33.44909,21.54665a3.132,3.132,0,0,1,2.42943-1.39075l-2.52421-3.92368c-1.6352-2.46205-10.676-7.541-10.676-7.541l-.53768.8572s6.81409,5.77806,8.221,7.72526Z"></path><path d="M48.86282,40.6246,38.82839,25.02688a3.1008,3.1008,0,0,1-2.31494,1.48932l9.07617,14.1084Z"></path></svg></g><path fill="white" fill-rule="nonzero" d="M5.15 19.52L0.14 19.54Q0 19.54 0 19.40L0 19.40L0.06 0.17Q0.06 0.06 0.17 0.06L0.17 0.06L5.40 0.03Q6.94 0 8.22 0.76Q9.49 1.51 10.25 2.79Q11.00 4.06 11.00 5.60L11.00 5.60L11.00 13.64Q11.00 15.26 10.22 16.59Q9.44 17.92 8.12 18.70Q6.80 19.49 5.15 19.52L5.15 19.52ZM3.44 3.42L3.42 16.10L5.15 16.10Q6.19 16.10 6.90 15.37Q7.62 14.64 7.62 13.64L7.62 13.64L7.62 5.57Q7.62 4.68 6.96 4.02Q6.30 3.36 5.40 3.39L5.40 3.39L3.44 3.42ZM11.70 19.40L11.70 19.40L15.18 0.17Q15.20 0.06 15.32 0.06L15.32 0.06L19.38 0.06Q19.49 0.06 19.52 0.17L19.52 0.17L22.85 19.40Q22.88 19.54 22.74 19.54L22.74 19.54L19.63 19.54Q19.52 19.54 19.49 19.40L19.49 19.40L19.18 17.36L15.37 17.36L15.06 19.40Q15.04 19.54 14.92 19.54L14.92 19.54L11.82 19.54Q11.70 19.54 11.70 19.40ZM17.19 6.50L15.93 14.36L18.62 14.36L17.47 6.50L17.30 5.46L17.19 6.50Z" transform="translate(39.028, 74.5)"></path></svg>